<svg width="100" xmlns="http://www.w3.org/2000/svg" height="100" id="screenshot-c782f978-248f-809b-8008-1770110217b0" viewBox="0 0 100 100" xmlns:xlink="http://www.w3.org/1999/xlink" fill="none" version="1.1"><style>@font-face {
    font-family: 'sourcesanspro';
    font-style: normal;
    font-weight: 400;
    font-display: block;
    src: url(http://penpot-frontend:8080/fonts/sourcesanspro-regular.woff) format('woff');
  }</style><g id="shape-c782f978-248f-809b-8008-1770110217b0"><defs><clipPath id="frame-clip-c782f978-248f-809b-8008-1770110217b0-render-1" class="frame-clip frame-clip-def"><rect rx="5" ry="5" x="0" y="0" width="100" height="100" transform="matrix(1.000000, 0.000000, 0.000000, 1.000000, 0.000000, 0.000000)"/></clipPath></defs><g class="frame-container-wrapper"><g class="frame-container-blur"><g class="frame-container-shadows"><g clip-path="url(#frame-clip-c782f978-248f-809b-8008-1770110217b0-render-1)" fill="none"><g class="fills" id="fills-c782f978-248f-809b-8008-1770110217b0"><rect rx="5" ry="5" x="0" y="0" width="100" height="100" transform="matrix(1.000000, 0.000000, 0.000000, 1.000000, 0.000000, 0.000000)" class="frame-background"/></g><g class="frame-children"><g id="shape-0e4292b9-4b25-8064-8008-176f5966dd3a"><g class="fills" id="fills-0e4292b9-4b25-8064-8008-176f5966dd3a"><rect rx="25" ry="25" x="10" y="12" transform="matrix(1.000000, 0.000000, 0.000000, 1.000000, 0.000000, 0.000000)" width="100" height="100" style="fill: rgb(221, 223, 229); fill-opacity: 1;"/></g></g><g id="shape-c782f978-248f-809b-8008-17701c05701b"><g class="fills" id="fills-c782f978-248f-809b-8008-17701c05701b"><rect rx="0" ry="0" x="-13.033561866442675" y="-26.452910515393675" transform="matrix(1.000000, 0.000000, 0.000000, 1.000000, 0.000000, 0.000000)" width="63.033561866442675" height="76.90582103078737" style="fill: rgb(177, 178, 181); fill-opacity: 1;"/></g><g id="strokes-515197bf-e756-807d-8008-1776c96cdf50-c782f978-248f-809b-8008-17701c05701b" class="strokes"><g class="inner-stroke-shape" transform="matrix(1.000000, 0.000000, 0.000000, 1.000000, 0.000000, 0.000000)"><defs><clipPath id="inner-stroke-render-3-c782f978-248f-809b-8008-17701c05701b-0"><use href="#stroke-shape-render-3-c782f978-248f-809b-8008-17701c05701b-0"/></clipPath><rect rx="0" ry="0" x="-13.033561866442675" y="-26.452910515393675" width="63.033561866442675" height="76.90582103078737" id="stroke-shape-render-3-c782f978-248f-809b-8008-17701c05701b-0" style="fill: none; stroke-width: 2; stroke: rgb(0, 0, 0); stroke-opacity: 1;"/></defs><use href="#stroke-shape-render-3-c782f978-248f-809b-8008-17701c05701b-0" clip-path="url('#inner-stroke-render-3-c782f978-248f-809b-8008-17701c05701b-0')"/></g></g></g><g id="shape-c782f978-248f-809b-8008-17702e60f1ab"><g class="fills" id="fills-c782f978-248f-809b-8008-17702e60f1ab"><rect rx="0" ry="0" x="2.6812733543235012" y="2.98042697329349" transform="matrix(1.000000, 0.000000, 0.000000, 1.000000, 0.000000, 0.000000)" width="44.62499568658576" height="44.53602122901667" style="fill: rgb(118, 127, 156); fill-opacity: 1;"/></g></g><g id="shape-c782f978-248f-809b-8008-17715bb0e9e2"><g class="fills" id="fills-c782f978-248f-809b-8008-17715bb0e9e2"><rect rx="0" ry="0" x="11.393000960357767" y="9.418849421260461" transform="matrix(1.000000, 0.000000, 0.000000, 1.000000, 0.000000, 0.000000)" width="28.121503929199072" height="31.167253164058508" style="fill: rgb(232, 233, 234); fill-opacity: 1;"/></g></g><g id="shape-c782f978-248f-809b-8008-177081545295"><g class="fills" id="fills-c782f978-248f-809b-8008-177081545295"><rect rx="5" ry="5" x="33.767014754188295" y="54.544986440339926" transform="matrix(1.000000, 0.000000, 0.000000, 1.000000, 0.000000, 0.000000)" width="34.29784401556694" height="43.388633310065956" style="fill: rgb(181, 52, 150); fill-opacity: 1;"/></g></g><g id="shape-c782f978-248f-809b-8008-17708a8e0bbc"><g class="fills" id="fills-c782f978-248f-809b-8008-17708a8e0bbc"><rect rx="0" ry="0" x="52.71736079325092" y="16.982612473506606" transform="matrix(1.000000, 0.000000, 0.000000, 1.000000, 0.000000, 0.000000)" width="15.347497976504286" height="33.017387526493486" style="fill: rgb(43, 108, 181); fill-opacity: 1;"/></g></g><g id="shape-c782f978-248f-809b-8008-177090524d77"><g class="fills" id="fills-c782f978-248f-809b-8008-177090524d77"><rect rx="8.073566094224773" ry="8.073566094224773" x="72.78673990631117" y="17.3441740483038" transform="matrix(1.000000, 0.000000, 0.000000, 1.000000, 0.000000, 0.000000)" width="24.034805684649456" height="16.147132188449547" style="fill: rgb(181, 0, 86); fill-opacity: 1;"/></g></g><g id="shape-c782f978-248f-809b-8008-177095494aee"><g class="fills" id="fills-c782f978-248f-809b-8008-177095494aee"><rect rx="6.465417119315237" ry="6.465417119315237" x="73.56319338818864" y="37.06916576136973" transform="matrix(1.000000, 0.000000, 0.000000, 1.000000, 0.000000, 0.000000)" width="23.2583522027723" height="12.930834238630474" style="fill: rgb(82, 181, 39); fill-opacity: 1;"/></g></g><g id="shape-c782f978-248f-809b-8008-17709923c1dc"><g class="fills" id="fills-c782f978-248f-809b-8008-17709923c1dc"><rect rx="7" ry="7" x="72.78673990631115" y="55.742917195711925" transform="matrix(1.000000, 0.000000, 0.000000, 1.000000, 0.000000, 0.000000)" width="24.034805684650223" height="42.19070255469356" style="fill: rgb(177, 178, 181); fill-opacity: 1;"/></g></g><g id="shape-c782f978-248f-809b-8008-1770a3de9439"><g class="fills" id="fills-c782f978-248f-809b-8008-1770a3de9439"><rect rx="1" ry="1" x="18.483219066778663" y="54.79833758155656" transform="matrix(1.000000, 0.000000, 0.000000, 1.000000, 0.000000, 0.000000)" width="11.716086848097394" height="43.135282168851056" style="fill: rgb(181, 160, 108); fill-opacity: 1;"/></g></g><g id="shape-c782f978-248f-809b-8008-1770ac4b3953"><g class="fills" id="fills-c782f978-248f-809b-8008-1770ac4b3953"><rect rx="1.8135588635377822" ry="1.8135588635377822" x="12.968185163974567" y="54.85618743352098" transform="matrix(1.000000, 0.000000, 0.000000, 1.000000, 0.000000, 0.000000)" width="3.6271177270755643" height="43.077432316886636" style="fill: rgb(39, 81, 205); fill-opacity: 1;"/></g></g><g id="shape-ad08732c-4093-805b-8008-17722f30e6e1"><g class="fills" id="fills-ad08732c-4093-805b-8008-17722f30e6e1"><rect rx="0" ry="0" x="11" y="9" transform="matrix(1.000000, 0.000000, 0.000000, 1.000000, 0.000000, 0.000000)" width="28" height="32" style="fill: rgb(74, 114, 181); fill-opacity: 1;"/></g></g><g id="shape-c782f978-248f-809b-8008-1771747efeb0"><g class="fills" id="fills-c782f978-248f-809b-8008-1771747efeb0"><ellipse cx="23.973057310362282" cy="19.58471441871976" rx="6.226248604513803" ry="5.663723169082065" transform="matrix(1.000000, 0.000000, 0.000000, 1.000000, 0.000000, 0.000000)" style="fill: rgb(177, 178, 181); fill-opacity: 1;"/></g></g><g id="shape-c782f978-248f-809b-8008-1771a057fa20"><g class="fills" id="fills-c782f978-248f-809b-8008-1771a057fa20"><rect rx="1" ry="1" x="10.999999999999996" y="29" transform="matrix(1.000000, 0.000000, 0.000000, 1.000000, 0.000000, 0.000000)" width="24.999999999999996" height="4" style="fill: rgb(177, 178, 181); fill-opacity: 1;"/></g></g><g id="shape-c782f978-248f-809b-8008-1771a67f3eaf"><g transform="matrix(1.000000, 0.000000, 0.000000, 1.000000, 0.000000, 0.000000)" class="text-container" x="19.712184924428094" y="30.1048845492532" width="68.68972389017654" height="3" rx="0" ry="0"><defs><pattern patternUnits="objectBoundingBox" width="9.25" height="3" id="fill-0-render-16-0"><g><rect width="9.25" height="3" style="fill: rgb(0, 0, 0); fill-opacity: 1;"/></g></pattern></defs><g class="fills" id="fills-c782f978-248f-809b-8008-1771a67f3eaf"><text x="19.712184924428094" y="32.1048845492532" dominant-baseline="ideographic" textLength="9.25" lengthAdjust="spacingAndGlyphs" style="text-transform: none; font-family: sourcesanspro; letter-spacing: normal; font-style: normal; font-weight: 400; white-space: pre; font-size: 2px; text-decoration: none; direction: ltr; fill: rgb(0, 0, 0); fill-opacity: 1;">NASyPeasy</text></g></g></g><g id="shape-ad08732c-4093-805b-8008-17726aaa0f82"><g class="fills" id="fills-ad08732c-4093-805b-8008-17726aaa0f82"><path d="M23.361286163330078,19.463058471679688L22.690025329589844,17.6019344329834L22.93402862548828,16.732345581054688L23.98676109313965,16L25.80209732055664,16.061084747314453L26.19875717163086,18.212108612060547L24.886837005615234,19.827190399169922L26.9462890625,21.61215591430664L26.763259887695312,22.496929168701172L23.956161499023438,23.83945083618164L23.07138442993164,23.076732635498047L23.996959686279297,20.768291473388672L23.218942642211914,20.70720672607422L21.342519760131836,22.065025329589844L20.28978729248047,21.775123596191406L20,20.447904586791992L20.54920196533203,19.395286560058594L21.78485107421875,18.769811630249023L23.05109977722168,19.212142944335938" style="fill: rgb(160, 186, 213); fill-opacity: 1;"/></g><g id="strokes-515197bf-e756-807d-8008-1776c9722924-ad08732c-4093-805b-8008-17726aaa0f82" class="strokes"><g class="stroke-shape"><path d="M23.361286163330078,19.463058471679688L22.690025329589844,17.6019344329834L22.93402862548828,16.732345581054688L23.98676109313965,16L25.80209732055664,16.061084747314453L26.19875717163086,18.212108612060547L24.886837005615234,19.827190399169922L26.9462890625,21.61215591430664L26.763259887695312,22.496929168701172L23.956161499023438,23.83945083618164L23.07138442993164,23.076732635498047L23.996959686279297,20.768291473388672L23.218942642211914,20.70720672607422L21.342519760131836,22.065025329589844L20.28978729248047,21.775123596191406L20,20.447904586791992L20.54920196533203,19.395286560058594L21.78485107421875,18.769811630249023L23.05109977722168,19.212142944335938" style="fill: none; stroke-width: 2; stroke: rgb(221, 223, 229); stroke-opacity: 1;"/></g></g></g><g id="shape-ad08732c-4093-805b-8008-177321227c13"><g class="fills" id="fills-ad08732c-4093-805b-8008-177321227c13"><rect rx="1.5" ry="1.5" x="19" y="29" transform="matrix(1.000000, 0.000000, 0.000000, 1.000000, 0.000000, 0.000000)" width="11" height="3"/></g><g id="strokes-515197bf-e756-807d-8008-1776c972ad6e-ad08732c-4093-805b-8008-177321227c13" class="strokes"><g class="inner-stroke-shape" transform="matrix(1.000000, 0.000000, 0.000000, 1.000000, 0.000000, 0.000000)"><defs><clipPath id="inner-stroke-render-18-ad08732c-4093-805b-8008-177321227c13-0"><use href="#stroke-shape-render-18-ad08732c-4093-805b-8008-177321227c13-0"/></clipPath><rect rx="1.5" ry="1.5" x="19" y="29" width="11" height="3" id="stroke-shape-render-18-ad08732c-4093-805b-8008-177321227c13-0" style="fill: none; stroke-width: 0.2; stroke: rgb(33, 141, 98); stroke-opacity: 1;"/></defs><use href="#stroke-shape-render-18-ad08732c-4093-805b-8008-177321227c13-0" clip-path="url('#inner-stroke-render-18-ad08732c-4093-805b-8008-177321227c13-0')"/></g></g></g></g></g></g></g></g></g></svg>